<svg width="476" height="476" viewBox="0 0 476 476" fill="none" xmlns="http://www.w3.org/2000/svg">
<rect width="476" height="476" fill="#EE2737"/>
<g clip-path="url(#clip0_963_168)">
<path fill-rule="evenodd" clip-rule="evenodd" d="M475.087 -0.015625V475.07H0V-0.015625H475.087Z" fill="#EE2737"/>
<path fill-rule="evenodd" clip-rule="evenodd" d="M149.422 239.764C149.461 236.055 149.561 233.132 149.723 230.992C149.831 229.361 149.857 227.322 149.803 224.875C149.751 222.427 149.723 220.796 149.723 219.98C149.723 218.465 149.884 216.922 150.203 215.348C150.523 213.775 150.734 212.756 150.842 212.289C151.798 208.794 152.118 205.997 151.798 203.899C151.692 203.084 151.426 202.035 151.001 200.754C150.695 199.817 150.376 198.885 150.043 197.957C148.765 194.227 148.073 191.723 147.968 190.441C147.968 189.391 147.915 188.518 147.809 187.819C147.701 187.119 147.596 186.537 147.489 186.071C147.177 184.517 147.017 182.936 147.009 181.351C147.009 178.905 147.754 176.924 149.245 175.409C148.712 173.428 148.445 171.797 148.445 170.514C148.445 169.116 148.659 167.135 149.085 164.572C149.213 163.847 149.319 163.118 149.404 162.387C149.512 161.513 149.564 160.552 149.564 159.503C149.564 156.939 148.873 154.725 147.49 152.861C148.127 150.064 148.446 145.927 148.446 140.451C148.446 136.139 148.873 132.701 149.723 130.138C149.512 129.089 149.112 128.244 148.526 127.604L147.49 126.468C146.637 125.652 145.999 124.894 145.574 124.195C145.148 123.496 144.988 122.505 145.094 121.224C144.668 120.874 143.844 120.467 142.621 120C141.396 119.534 140.491 118.98 139.905 118.34C139.321 117.699 139.135 116.68 139.347 115.28C138.922 114.931 137.964 114.67 136.475 114.494C134.984 114.319 134.025 113.999 133.6 113.534C133.389 113.184 133.281 112.659 133.281 111.96C133.281 111.494 133.361 110.765 133.521 109.775C133.681 108.785 133.706 107.823 133.601 106.891C136.367 105.842 138.736 104.269 140.705 102.171C142.674 100.074 144.775 97.336 147.01 93.956C149.245 90.577 151.32 87.956 153.236 86.091C158.558 87.256 162.175 90.635 164.091 96.228C166.646 96.112 168.641 96.695 170.076 97.977C171.514 99.258 172.764 101.064 173.828 103.395L181.33 104.444C184.31 107.007 186.519 109.338 187.957 111.436C188.947 112.884 189.573 114.694 189.829 116.866L190.265 116.79C192.165 116.452 193.816 115.944 195.216 115.267L195.016 114.928C195.284 115.041 195.55 115.21 195.816 115.436C196.083 115.662 196.284 115.775 196.416 115.775C196.683 115.887 197.116 115.944 197.716 115.944C198.803 115.941 199.883 115.77 200.917 115.436C202.251 115.21 203.218 115.097 203.819 115.097C205.419 115.21 206.919 115.21 208.319 115.097C208.72 115.662 209.286 115.944 210.019 115.944C210.419 115.944 211.153 115.718 212.22 115.267C213.155 114.815 213.854 114.59 214.32 114.59C214.72 114.59 215.272 114.787 215.97 115.182C216.671 115.577 217.155 115.775 217.421 115.775C217.821 115.775 218.339 115.492 218.972 114.928C219.606 114.364 220.089 114.082 220.423 114.082C221.69 113.969 223.456 114.364 225.725 115.267C226.057 115.379 226.757 115.605 227.825 115.944C228.891 116.282 229.925 116.452 230.925 116.452C232.059 116.452 233.059 116.226 233.925 115.775C234.059 115.323 234.126 114.985 234.126 114.759C236.26 114.984 237.794 115.097 238.726 115.097C238.794 115.097 239.01 115.379 239.376 115.944C239.743 116.508 240.061 116.79 240.327 116.79C241.128 116.79 242.061 116.282 243.129 115.267C243.862 114.59 244.495 114.11 245.029 113.827C245.563 113.546 246.162 113.461 246.829 113.574C247.163 113.8 247.629 114.11 248.229 114.504C248.829 114.9 249.329 115.097 249.729 115.097C250.929 114.984 252.664 114.59 254.932 113.913C255.53 113.687 256.299 113.461 257.232 113.236V113.405C258.299 113.856 259.432 114.082 260.632 114.082C262.299 114.082 264.6 113.405 267.535 112.051C270.335 110.697 272.502 110.02 274.037 110.02C275.17 110.02 276.437 110.358 277.837 111.035C278.303 110.81 278.82 110.245 279.387 109.343C279.955 108.44 280.504 107.933 281.037 107.819C282.105 108.271 283.371 108.496 284.838 108.496C287.305 108.496 289.74 107.876 292.141 106.635C293.008 104.829 294.058 103.25 295.291 101.895C295.497 101.669 295.715 101.439 295.941 101.205C296.141 100.77 296.37 100.355 296.627 99.957C297.799 98.15 299.66 95.944 302.215 93.341C302.854 92.618 303.704 91.642 304.77 90.413C305.834 89.183 306.764 88.28 307.562 87.701C307.845 87.497 308.137 87.329 308.44 87.197C308.578 86.859 308.715 86.512 308.845 86.155C310.513 85.93 311.795 86.297 312.695 87.255C312.839 87.408 312.984 87.577 313.131 87.76C313.584 88.039 314.041 88.381 314.507 88.786C314.719 88.931 315.305 89.292 316.263 89.871C317.221 90.449 318.232 90.738 319.296 90.738C319.616 90.738 320.306 90.593 321.371 90.304C324.031 96.523 328.075 100.138 333.503 101.15C334.286 102.869 335.031 104.605 335.738 106.356C336.29 107.723 336.822 109.097 337.335 110.478C338.718 114.672 340.207 118.359 341.804 121.541C341.271 122.698 340.26 124.433 338.771 126.747C337.068 129.495 335.791 131.844 334.939 133.797C334.089 135.747 333.655 137.852 333.663 139.979C333.663 141.859 334.035 143.739 334.78 145.619C334.78 146.486 334.647 147.173 334.38 147.679C334.116 148.186 333.583 148.873 332.785 149.74C331.986 150.608 331.586 151.62 331.586 152.777C333.077 155.525 333.822 158.923 333.822 162.973C333.822 165.286 333.663 167.673 333.344 170.131C333.218 171.177 333.112 172.226 333.024 173.276C332.917 174.506 332.864 175.988 332.864 177.723C332.864 180.904 333.291 183.724 334.141 186.183V187.051C334.143 188.058 333.837 189.042 333.264 189.871C332.678 190.738 332.333 191.461 332.225 192.04C334.141 193.92 335.099 196.523 335.099 199.849C335.099 201.584 334.807 203.175 334.222 204.621C333.636 206.067 332.758 207.152 331.586 207.875C334.247 214.238 335.577 225.662 335.577 242.148L335.419 255.814C335.313 260.153 335.046 263.659 334.621 266.334C334.194 269.01 333.397 271.794 332.225 274.686C333.928 276.856 335.019 279.783 335.499 283.471C335.977 287.159 336.216 291.895 336.216 297.679C336.324 303.029 336.51 307.151 336.775 310.044C337.041 312.936 337.655 315.467 338.61 317.636C337.547 318.359 336.855 319.226 336.536 320.239C336.216 321.251 335.952 322.842 335.738 325.011C335.525 326.891 335.285 328.337 335.019 329.35C334.753 330.362 334.247 331.302 333.503 332.17C335.205 334.628 336.057 337.448 336.057 340.63C336.057 343.088 335.313 346.92 333.822 352.126C332.972 355.308 332.358 358.019 331.986 360.261C331.617 362.446 331.483 364.664 331.586 366.877C330.736 367.167 329.911 367.889 329.114 369.047C328.306 370.221 327.585 371.453 326.959 372.734C325.681 375.192 324.457 377.144 323.287 378.591C322.967 378.88 322.223 379.205 321.051 379.567C319.881 379.928 319.135 380.326 318.816 380.76C318.285 381.338 317.619 382.46 316.821 384.122C316.024 385.785 315.277 387.014 314.586 387.81C313.894 388.605 312.858 389.003 311.474 389.003C310.622 389.003 309.239 388.641 307.323 387.918C306.153 386.472 305.167 384.808 304.37 382.929C303.57 381.049 302.693 378.663 301.737 375.771C300.779 372.734 299.873 370.275 299.021 368.395C300.193 356.103 300.884 339.689 301.098 319.155C301.31 303.247 301.682 291.605 302.215 284.23C301.912 282.989 301.566 281.759 301.176 280.543C300.804 279.386 300.299 278.446 299.66 277.723C301.023 271.43 301.804 265.821 302.003 260.897C299.988 259.627 298.275 258.176 296.866 256.541H296.421C296.051 256.541 295.587 256.768 295.032 257.221C294.475 257.675 293.901 257.845 293.308 257.731C284.411 255.011 273.848 253.651 261.616 253.651C252.127 253.651 241.526 254.558 229.814 256.371C228.48 256.598 226.442 256.711 223.699 256.711C219.547 256.711 216.619 256.994 214.914 257.561L211.689 259.261C209.983 260.507 208.538 261.244 207.352 261.471C206.315 261.811 204.72 261.981 202.57 261.981H199.734C198.216 261.981 196.862 262.207 195.676 262.661C193.344 263.335 189.806 264.829 185.062 267.142C185.371 268.161 185.831 269.045 186.44 269.795C186.332 271.427 186.28 273.991 186.28 277.486C186.28 284.711 186.546 293.276 187.079 303.181C187.185 305.511 187.343 309.648 187.557 315.591C187.77 321.534 187.877 326.777 187.877 331.321C187.877 335.051 187.823 337.789 187.716 339.537C187.504 344.081 186.28 350.082 184.046 357.54C182.341 363.25 181.225 367.795 180.694 371.174C178.884 372.689 175.85 375.777 171.593 380.438C170.694 381.439 169.817 382.459 168.96 383.497C167.843 384.837 166.804 385.915 165.846 386.73C164.569 386.497 163.666 386.381 163.133 386.381C161.536 386.381 159.674 386.847 157.547 387.779C155.842 388.479 154.567 388.886 153.714 389.003C150.309 384.808 148.607 379.156 148.607 372.048C148.607 367.271 149.351 362.609 150.842 358.065C150.522 357.482 150.256 356.317 150.042 354.569C149.831 352.355 149.352 350.899 148.607 350.199C149.245 344.023 149.565 338.022 149.565 332.196C149.565 327.535 149.351 320.66 148.925 311.57C148.501 302.714 148.287 295.956 148.287 291.295C148.287 284.187 148.607 278.185 149.245 273.291C149.138 272.476 148.74 271.514 148.048 270.407C147.356 269.3 146.957 268.281 146.851 267.349C147.915 264.669 148.579 261.609 148.846 258.172C149.057 255.437 149.218 251.762 149.329 247.147C149.264 247.021 149.2 246.895 149.139 246.767C148.362 245.124 147.935 242.999 147.862 240.393C148.382 240.159 148.902 239.949 149.422 239.763V239.764ZM181.458 143.919C181.371 145.208 181.328 146.5 181.33 147.792C181.33 149.54 181.438 152.045 181.65 155.308C181.863 158.804 181.97 161.368 181.97 162.998C181.97 167.66 181.385 171.622 180.214 174.884C180.427 175.35 180.905 176.05 181.65 176.982C182.396 177.914 182.874 178.788 183.088 179.604C183.3 182.167 183.408 184.148 183.408 185.546C183.408 188.226 183.352 190.266 183.247 191.665L183.087 197.957C183.087 205.065 184.046 210.483 185.96 214.212C184.363 218.757 183.566 223.942 183.566 229.769C183.566 232.444 183.748 235.244 184.116 238.17C184.788 238.061 185.454 237.924 186.113 237.758C188.559 237.135 190.673 235.633 192.451 233.253C194.083 232.913 195.676 232.743 197.233 232.743C197.603 232.743 199.68 232.913 203.461 233.253C205.388 233.593 207.167 233.763 208.797 233.763C211.319 233.763 213.542 233.253 215.469 232.233C215.914 232.12 216.266 232.205 216.525 232.489C216.786 232.772 217.118 233.282 217.527 234.019C217.934 234.755 218.361 235.179 218.805 235.293C221.697 233.82 225.329 233.083 229.703 233.083C231.853 233.083 233.446 233.14 234.484 233.253L239.599 233.423C240.638 233.423 242.417 233.31 244.937 233.083C249.014 232.63 253.425 232.403 258.169 232.403C262.023 232.403 265.916 232.233 269.845 231.893C272.052 231.549 274.283 231.378 276.517 231.383C277.703 231.383 279.26 231.497 281.187 231.723C282.077 231.837 283.152 232.29 284.411 233.083C286.488 234.217 288.192 234.783 289.526 234.783C290.342 234.783 291.194 234.613 292.085 234.273C292.603 233.707 292.955 232.403 293.141 230.363C293.326 228.323 293.494 227.021 293.641 226.454C294.828 225.887 295.866 224.867 296.755 223.394C297.53 222.109 298.448 220.35 299.507 218.116C299.541 214.483 299.753 209.116 300.14 202.018C300.671 195.221 300.937 189.22 300.937 184.014C300.937 180.832 300.618 176.349 299.979 170.564C299.341 165.07 299.021 160.948 299.021 158.2C299.021 153.717 299.66 149.74 300.937 146.27C299.448 144.968 298.702 142.003 298.702 137.376C298.702 135.438 298.797 133.298 298.982 130.954C296.962 130.558 294.264 130.152 290.89 129.738C284.922 129.004 280.537 128.581 277.738 128.468C273.602 128.243 270.368 128.13 268.035 128.13C261.5 128.13 255.731 128.581 250.731 129.484L240.428 131.514C239.828 131.628 238.893 131.684 237.626 131.684C236.493 131.684 234.926 131.571 232.926 131.345L228.725 131.176C226.458 131.176 224.657 131.515 223.323 132.192C222.39 132.53 221.456 133.151 220.522 134.054C219.604 134.722 218.634 135.316 217.622 135.831C216.622 136.338 215.688 136.592 214.821 136.592C213.554 136.592 212.221 135.915 210.821 134.562C210.552 135.238 210.253 135.605 209.919 135.662C209.587 135.718 209.186 135.689 208.72 135.576C208.328 135.474 207.925 135.417 207.52 135.408C206.585 135.408 205.685 136.254 204.819 137.946C203.952 139.075 203.351 139.752 203.017 139.977C202.617 140.203 201.985 140.316 201.117 140.316C199.984 140.316 198.683 140.034 197.217 139.469C196.884 139.356 196.317 139.187 195.515 138.962C194.768 138.744 193.995 138.63 193.216 138.623C192.482 138.623 191.948 138.679 191.616 138.793C191.349 138.905 191.032 139.3 190.665 139.977C190.298 140.654 190.015 141.049 189.815 141.162C189.615 141.275 189.282 141.332 188.815 141.332C188.415 141.332 187.915 141.275 187.315 141.162C186.714 141.049 186.247 141.049 185.915 141.162C185.247 141.275 184.48 141.642 183.613 142.262C182.876 142.789 182.157 143.342 181.458 143.919ZM251.468 210.548C249.105 211.224 247.271 211.028 245.966 209.962C244.661 208.895 243.242 207.034 241.709 204.378C241.453 203.935 240.959 203.163 240.223 202.062C239.575 201.077 238.877 200.125 238.133 199.21C237.731 198.852 237.119 198.517 236.3 198.203C235.479 197.89 234.946 197.607 234.703 197.355C234.141 196.892 233.519 196.07 232.836 194.89C232.369 194.079 231.933 193.494 231.53 193.136C231.126 192.779 230.602 192.638 229.958 192.716C225.215 183.648 217.202 177.354 205.923 173.832C205.113 172.43 204.176 171.446 203.111 170.88C202.047 170.314 200.663 169.834 198.959 169.44L198.703 168.998C198.576 168.776 198.343 168.418 198.01 167.922C197.674 167.427 197.634 167.058 197.886 166.813C198.557 165.933 199.189 165.323 199.78 164.983C201.477 164.003 203.574 163.972 206.072 164.891C207.886 163.942 209.556 163.298 211.082 162.959C212.607 162.619 214.564 162.301 216.95 162.005C220.754 161.777 223.752 161.177 225.945 160.205C226.794 160.995 227.675 161.371 228.59 161.335C229.504 161.299 230.769 161.061 232.384 160.62C233.541 160.246 234.736 160.001 235.946 159.891C236.4 159.826 237.225 159.891 238.42 160.086C239.616 160.282 240.535 160.341 241.18 160.264C244.762 160.164 247.537 160.159 249.508 160.251C251.481 160.343 253.33 160.775 255.054 161.551C256.04 162.063 257.222 163.004 258.602 164.371C259.58 165.381 260.328 166.081 260.846 166.47C261.812 167.29 262.983 168.04 264.359 168.721C265.779 169.476 266.921 170.218 267.786 170.949C268.65 171.679 269.446 172.672 270.17 173.926C270.595 174.664 270.9 175.276 271.08 175.761C272.416 178.925 272.818 181.964 272.287 184.878C271.756 187.792 270.627 191.419 268.903 195.76C268.639 195.814 268.248 195.99 267.732 196.288C266.703 196.88 265.846 197.731 265.246 198.756C264.622 199.806 264.116 200.589 263.728 201.109L263.284 201.365C262.989 201.535 262.513 201.688 261.852 201.823C261.193 201.958 260.647 202.248 260.215 202.694C260.137 203.92 259.653 205.084 258.765 206.188C257.877 207.291 256.731 208.247 255.33 209.056C254.132 209.759 252.828 210.263 251.468 210.548Z" fill="white"/>
</g>
<defs>
<clipPath id="clip0_963_168">
<rect width="476" height="476" fill="white"/>
</clipPath>
</defs>
</svg>
