<svg width="28" height="28" viewBox="0 0 28 28" fill="none" xmlns="http://www.w3.org/2000/svg">
<g clip-path="url(#clip0_1041_195)">
<path d="M11.0834 2.33203H4.08337C3.61943 2.33265 3.17467 2.51722 2.84662 2.84528C2.51856 3.17333 2.33399 3.61809 2.33337 4.08203V11.082C2.33399 11.546 2.51856 11.9907 2.84662 12.3188C3.17467 12.6468 3.61943 12.8314 4.08337 12.832H11.0834C11.5473 12.8314 11.9921 12.6468 12.3201 12.3188C12.6482 11.9907 12.8328 11.546 12.8334 11.082V4.08203C12.8328 3.61809 12.6482 3.17333 12.3201 2.84528C11.9921 2.51722 11.5473 2.33265 11.0834 2.33203ZM11.6667 11.082C11.6664 11.2366 11.6048 11.3848 11.4955 11.4942C11.3862 11.6035 11.238 11.6651 11.0834 11.6654H4.08337C3.92876 11.6651 3.78057 11.6035 3.67124 11.4942C3.56191 11.3848 3.50035 11.2366 3.50004 11.082V4.08203C3.50035 3.92742 3.56191 3.77922 3.67124 3.66989C3.78057 3.56056 3.92876 3.49901 4.08337 3.4987H11.0834C11.238 3.49901 11.3862 3.56056 11.4955 3.66989C11.6048 3.77922 11.6664 3.92742 11.6667 4.08203V11.082ZM23.9167 2.33203H16.9167C16.4528 2.33265 16.008 2.51722 15.68 2.84528C15.3519 3.17333 15.1673 3.61809 15.1667 4.08203V11.082C15.1673 11.546 15.3519 11.9907 15.68 12.3188C16.008 12.6468 16.4528 12.8314 16.9167 12.832H23.9167C24.3806 12.8314 24.8254 12.6468 25.1535 12.3188C25.4815 11.9907 25.6661 11.546 25.6667 11.082V4.08203C25.6661 3.61809 25.4815 3.17333 25.1535 2.84528C24.8254 2.51722 24.3806 2.33265 23.9167 2.33203ZM24.5 11.082C24.4997 11.2366 24.4382 11.3848 24.3288 11.4942C24.2195 11.6035 24.0713 11.6651 23.9167 11.6654H16.9167C16.7621 11.6651 16.6139 11.6035 16.5046 11.4942C16.3952 11.3848 16.3337 11.2366 16.3334 11.082V4.08203C16.3337 3.92742 16.3952 3.77922 16.5046 3.66989C16.6139 3.56056 16.7621 3.49901 16.9167 3.4987H23.9167C24.0713 3.49901 24.2195 3.56056 24.3288 3.66989C24.4382 3.77922 24.4997 3.92742 24.5 4.08203V11.082ZM11.0834 15.1654H4.08337C3.61943 15.166 3.17467 15.3506 2.84662 15.6786C2.51856 16.0067 2.33399 16.4514 2.33337 16.9154V23.9154C2.33399 24.3793 2.51856 24.8241 2.84662 25.1521C3.17467 25.4802 3.61943 25.6647 4.08337 25.6654H11.0834C11.5473 25.6647 11.9921 25.4802 12.3201 25.1521C12.6482 24.8241 12.8328 24.3793 12.8334 23.9154V16.9154C12.8328 16.4514 12.6482 16.0067 12.3201 15.6786C11.9921 15.3506 11.5473 15.166 11.0834 15.1654ZM11.6667 23.9154C11.6664 24.07 11.6048 24.2182 11.4955 24.3275C11.3862 24.4368 11.238 24.4984 11.0834 24.4987H4.08337C3.92876 24.4984 3.78057 24.4368 3.67124 24.3275C3.56191 24.2182 3.50035 24.07 3.50004 23.9154V16.9154C3.50035 16.7607 3.56191 16.6126 3.67124 16.5032C3.78057 16.3939 3.92876 16.3323 4.08337 16.332H11.0834C11.238 16.3323 11.3862 16.3939 11.4955 16.5032C11.6048 16.6126 11.6664 16.7607 11.6667 16.9154V23.9154ZM23.9167 15.1654H16.9167C16.4528 15.166 16.008 15.3506 15.68 15.6786C15.3519 16.0067 15.1673 16.4514 15.1667 16.9154V23.9154C15.1673 24.3793 15.3519 24.8241 15.68 25.1521C16.008 25.4802 16.4528 25.6647 16.9167 25.6654H23.9167C24.3806 25.6647 24.8254 25.4802 25.1535 25.1521C25.4815 24.8241 25.6661 24.3793 25.6667 23.9154V16.9154C25.6661 16.4514 25.4815 16.0067 25.1535 15.6786C24.8254 15.3506 24.3806 15.166 23.9167 15.1654ZM24.5 23.9154C24.4997 24.07 24.4382 24.2182 24.3288 24.3275C24.2195 24.4368 24.0713 24.4984 23.9167 24.4987H16.9167C16.7621 24.4984 16.6139 24.4368 16.5046 24.3275C16.3952 24.2182 16.3337 24.07 16.3334 23.9154V16.9154C16.3337 16.7607 16.3952 16.6126 16.5046 16.5032C16.6139 16.3939 16.7621 16.3323 16.9167 16.332H23.9167C24.0713 16.3323 24.2195 16.3939 24.3288 16.5032C24.4382 16.6126 24.4997 16.7607 24.5 16.9154V23.9154Z" fill="#6E4648"/>
</g>
<defs>
<clipPath id="clip0_1041_195">
<rect width="28" height="28" fill="white"/>
</clipPath>
</defs>
</svg>
