<svg width="28" height="28" viewBox="0 0 28 28" fill="none" xmlns="http://www.w3.org/2000/svg">
<path d="M12.6337 1.90529C12.5496 1.91732 12.0686 1.99547 11.5576 2.07964C8.185 2.63272 5.16106 4.53847 3.36353 7.24378C2.582 8.42209 2.07099 9.60041 1.72832 11.0192C1.42773 12.2396 1.36761 12.8528 1.40969 14.2355C1.44576 15.486 1.55999 16.2254 1.89665 17.3737C3.00282 21.1671 6.15301 24.2993 10.0787 25.5137C12.3151 26.205 15.0144 26.2952 17.1486 25.7602C19.0303 25.2852 21.0262 24.3113 22.2526 23.2713C23.2386 22.4416 24.2906 21.2693 24.8618 20.3796C25.2585 19.7604 25.9379 18.3416 26.0942 17.7945C26.1723 17.548 26.2565 17.2775 26.2866 17.1933C26.3106 17.1092 26.3948 16.7184 26.4669 16.3216C26.5751 15.7325 26.5992 15.3778 26.5992 14.3978C26.5932 12.8288 26.4429 11.8488 25.9439 10.2617C25.7515 9.66053 25.0181 8.18763 24.5431 7.47223C23.2566 5.51238 21.5132 3.97336 19.4451 2.96938C19.0784 2.79504 18.6696 2.6207 18.5433 2.59064C18.4171 2.56058 18.0925 2.4704 17.8219 2.38624C17.1967 2.18785 16.2949 2.00749 15.6096 1.92333C15.0926 1.86922 12.9464 1.85119 12.6337 1.90529ZM15.3511 2.57862C15.6817 2.6207 15.82 2.68082 16.1266 2.89123L16.4993 3.15575L15.4833 3.19182C13.6317 3.25795 12.4474 3.51045 11.2871 4.08157C10.3012 4.56251 10.2531 4.65269 10.9504 4.71882C12.3993 4.85709 14.9783 5.5244 14.9783 5.75886C14.9783 5.78892 14.9062 5.84303 14.822 5.8791C14.5395 6.01136 13.6738 6.60653 13.3552 6.89509C13.1327 7.0995 12.9824 7.3039 12.8562 7.57443C12.6939 7.93514 12.6097 8.04936 12.5015 8.05537C12.4774 8.05537 12.3512 7.82091 12.2129 7.53235L11.9664 7.00932L11.7019 7.42413C11.5516 7.65258 11.4314 7.863 11.4314 7.89306C11.4314 7.92311 11.3292 7.93514 11.2089 7.9171C10.4334 7.80288 10.4094 7.79687 10.4094 7.88704C10.4094 7.93514 10.5597 8.14555 10.746 8.34995L11.0887 8.72268L10.8062 9.26375C10.6498 9.55833 10.5296 9.83487 10.5416 9.88296C10.5537 9.94909 10.704 9.88898 11.0947 9.67255C11.3893 9.51023 11.6478 9.37797 11.6719 9.37797C11.7019 9.37797 11.7801 9.48017 11.8522 9.60041L11.9785 9.81683L11.8582 10.3098C11.732 10.7847 11.7019 11.0613 11.762 11.0613C11.7801 11.0613 12.0686 10.8749 12.4113 10.6465C12.9584 10.2797 13.8181 9.73868 13.8541 9.73868C13.8602 9.73868 13.8662 10.2136 13.8662 10.7847C13.8662 11.4881 13.8902 11.8608 13.9323 11.9029C13.9864 11.957 14.1126 11.8368 14.4433 11.44C14.9723 10.8148 15.327 10.4601 15.4292 10.4601C15.4773 10.4601 15.5254 10.5743 15.5495 10.7427C15.6817 11.6625 16.0965 12.4861 16.5474 12.7145C16.854 12.8768 16.8961 12.8468 16.86 12.45C16.818 12.0232 16.9322 11.5001 17.0825 11.422C17.1787 11.3739 17.2027 11.3919 17.2568 11.5603C17.4913 12.3238 17.4432 12.4199 16.2468 13.49C15.8801 13.8207 16.1326 14.1513 16.8781 14.3077C17.1666 14.3678 17.1847 14.3858 17.341 14.7044C17.4612 14.9449 17.5754 15.0712 17.7738 15.1974C17.9903 15.3237 18.0624 15.4138 18.1406 15.6423C18.2187 15.8827 18.5373 16.2916 18.6456 16.2916C18.7237 16.2916 18.874 16.6462 18.9461 17.013C19.0844 17.7584 19.3549 17.9749 20.1846 18.023C20.7136 18.053 21.3028 17.9328 22.5111 17.542C22.8298 17.4398 23.1063 17.3677 23.1243 17.3797C23.1364 17.3977 23.1785 17.5901 23.2145 17.8186C23.3047 18.3957 23.467 18.8165 23.7856 19.3335L24.0622 19.7784L23.8698 20.061C23.431 20.7102 22.4871 21.7322 21.7717 22.3274C20.4491 23.4396 18.862 24.2332 17.1005 24.678C15.7839 25.0087 15.0625 25.0868 13.806 25.0508C12.6939 25.0207 12.0686 24.9365 11.0647 24.678C8.19101 23.9446 5.80433 22.2733 4.14507 19.8385C3.12907 18.3476 2.45575 16.4058 2.31748 14.5962C2.29944 14.3557 2.27539 14.1273 2.26938 14.0972C2.25736 14.0612 2.26938 13.6283 2.29944 13.1354C2.37759 11.5843 2.72628 10.2316 3.39359 8.86697C4.39756 6.81694 5.85843 5.26589 7.86638 4.12966C9.31522 3.31206 10.8663 2.79504 12.4834 2.59064C13.0425 2.52451 14.8461 2.51249 15.3511 2.57862ZM17.0705 3.62467C17.2147 3.69681 17.4612 3.87717 17.6175 4.02746C17.9301 4.32805 18.2668 4.79096 18.2067 4.84507C18.1887 4.8631 17.9662 4.809 17.7077 4.72483C16.3551 4.26793 14.3411 3.90723 13.1508 3.90723C12.9524 3.90723 12.8081 3.8952 12.8261 3.87717C12.8862 3.81104 14.3411 3.54652 14.9062 3.49241C15.7899 3.40825 16.7518 3.46836 17.0705 3.62467ZM15.6757 6.12558C15.9763 6.34201 16.1446 6.52837 16.0965 6.60052C16.0785 6.63058 15.9763 6.67266 15.8681 6.69069C14.9723 6.83498 13.6317 7.8149 12.9103 8.84893C12.7179 9.12548 12.754 8.885 13.0185 8.20567C13.1748 7.79687 13.3612 7.41812 13.4574 7.31592C13.8602 6.88908 15.1707 5.95725 15.3751 5.95124C15.4112 5.95124 15.5495 6.02939 15.6757 6.12558ZM18.1586 7.07545C18.2247 7.34598 18.2187 7.39408 18.0083 7.86901C17.834 8.2718 17.7798 8.50626 17.7197 9.04131L17.6476 9.70862L17.5514 9.43809C17.371 8.93911 17.323 8.76477 17.2869 8.39204C17.2508 8.04936 17.2628 8.00127 17.4432 7.69467C17.7798 7.11753 17.9963 6.79289 18.0444 6.79289C18.0684 6.79289 18.1225 6.91914 18.1586 7.07545ZM20.5994 8.89102C20.8338 9.36595 20.8399 9.51624 20.6415 9.81082C20.425 10.1174 20.1064 10.4361 20.0523 10.388C20.0343 10.3699 20.0643 10.2196 20.1184 10.0573C20.2387 9.70862 20.3349 8.70465 20.2507 8.65054C20.2206 8.6265 20.2146 8.5784 20.2387 8.54233C20.2988 8.43412 20.4311 8.56638 20.5994 8.89102ZM16.3009 8.96316C16.2108 9.12548 16.0605 9.62446 15.9703 10.0393L15.9042 10.3699L15.8621 10.0994C15.808 9.75672 15.9042 8.95715 16.0124 8.89102C16.0545 8.86096 16.1506 8.83691 16.2288 8.83691C16.349 8.83691 16.3551 8.85494 16.3009 8.96316ZM14.7379 9.52226C14.7379 9.53428 14.6657 9.67255 14.5756 9.83487C14.3952 10.1535 14.3291 10.0994 14.4072 9.70261C14.4373 9.53428 14.4673 9.49821 14.5876 9.49821C14.6717 9.49821 14.7379 9.51023 14.7379 9.52226Z" fill="#6E4648"/>
<path d="M6.41754 11.1825C6.16504 11.3809 5.9426 11.5432 5.92457 11.5432C5.90052 11.5432 5.79832 11.4771 5.69612 11.399C5.59392 11.3268 5.42559 11.2186 5.32339 11.1645L5.13101 11.0683L5.09494 11.2727C5.07089 11.3929 5.07089 11.6454 5.09494 11.8378L5.13101 12.1865L4.72822 12.6314C4.27733 13.1243 4.27733 13.1785 4.78834 13.2566C4.99875 13.2867 5.06488 13.3227 5.08292 13.4249C5.15506 13.7736 5.23922 14.3688 5.23922 14.5431C5.23922 14.8798 5.42559 14.7415 5.78029 14.1403C5.96665 13.8398 6.14099 13.5632 6.17707 13.5271C6.20712 13.4971 6.52575 13.4309 6.88646 13.3768C7.24717 13.3287 7.55978 13.2746 7.57782 13.2566C7.59585 13.2386 7.38544 12.9981 7.11491 12.7276L6.62194 12.2346L6.80229 11.5733C6.89848 11.2066 6.98265 10.894 6.98265 10.8639C6.98265 10.7617 6.84438 10.8399 6.41754 11.1825Z" fill="#6E4648"/>
<path d="M15.1888 14.7994C15.1708 14.8475 15.1647 15.2322 15.1708 15.6591L15.1888 16.4346L14.4133 16.6811C13.9804 16.8193 13.6257 16.9576 13.6137 16.9937C13.5897 17.0598 13.7219 17.1139 14.786 17.4927L15.3391 17.6911V18.5808C15.3391 19.0738 15.3631 19.4766 15.3872 19.4766C15.4653 19.4766 15.7058 19.2 16.1807 18.5568C16.4212 18.2381 16.6316 17.9736 16.6557 17.9736C16.6737 17.9736 16.9623 18.0518 17.2929 18.148C18.0985 18.3764 18.2849 18.4185 18.2849 18.3463C18.2849 18.3163 18.0504 17.9796 17.7618 17.6069L17.2388 16.9276L17.6176 16.2122C17.828 15.8214 17.9843 15.4907 17.9723 15.4847C17.9663 15.4787 17.6236 15.5509 17.2208 15.647L16.4934 15.8274L15.9102 15.2923C15.279 14.7092 15.2369 14.6791 15.1888 14.7994Z" fill="#6E4648"/>
<path d="M8.63593 17.4342C8.61188 17.4703 8.59986 17.6627 8.60587 17.8731C8.61188 18.0775 8.61188 18.2759 8.61188 18.3119C8.60587 18.348 8.41349 18.5223 8.17903 18.6907C7.94457 18.865 7.76421 19.0334 7.78225 19.0754C7.79427 19.1175 8.02873 19.1957 8.30528 19.2498C8.57581 19.3099 8.81628 19.37 8.83432 19.388C8.85235 19.4061 8.93051 19.6405 9.00866 19.9171C9.09282 20.1876 9.17699 20.4341 9.20104 20.4581C9.2311 20.4882 9.3874 20.2718 9.55573 19.9772L9.86234 19.4482L10.4154 19.358C10.722 19.3099 10.9805 19.2378 10.9926 19.2017C11.0046 19.1656 10.8904 19.0454 10.7401 18.9311C10.5898 18.8169 10.4094 18.6847 10.3373 18.6366L10.217 18.5404L10.3733 18.0414C10.4635 17.7649 10.5236 17.5304 10.5116 17.5184C10.4996 17.5003 10.3072 17.5725 10.0908 17.6747C9.86835 17.7709 9.65192 17.855 9.60383 17.855C9.54972 17.855 9.34532 17.7468 9.14092 17.6146C8.74414 17.3561 8.69604 17.338 8.63593 17.4342Z" fill="#6E4648"/>
</svg>
