<svg width="28" height="28" viewBox="0 0 28 28" fill="none" xmlns="http://www.w3.org/2000/svg">
<path d="M14 3.5C7.61523 3.50684 2.04395 7.83398 0.458008 14.0137C2.05762 20.1865 7.62891 24.4932 14 24.5C20.3848 24.4932 25.9561 20.166 27.542 13.9795C25.9424 7.81348 20.3711 3.50684 14 3.5ZM14 7C17.8691 7 21 10.1309 21 14C21 17.8691 17.8691 21 14 21C10.1309 21 7 17.8691 7 14C7 10.1309 10.1309 7 14 7ZM14 10.5C12.0654 10.5 10.5 12.0654 10.5 14C10.5 15.9346 12.0654 17.5 14 17.5C15.9346 17.5 17.5 15.9346 17.5 14C17.5 12.0654 15.9346 10.5 14 10.5Z" fill="#6E4648"/>
</svg>
