<svg width="76" height="76" viewBox="0 0 76 76" fill="none" xmlns="http://www.w3.org/2000/svg">
<g clip-path="url(#clip0_956_770)">
<path fill-rule="evenodd" clip-rule="evenodd" d="M44.4605 27.0727C46.7854 25.9135 49.7435 24.207 52.7053 21.869C53.3297 23.1658 53.3981 24.2975 53.0764 25.2112C52.8484 25.8552 52.4187 26.4153 51.8538 26.8609C51.242 27.3425 50.478 27.6931 49.6333 27.8826C48.0308 28.2436 46.1596 28.0329 44.4605 27.0727ZM44.8636 38.9505L47.9411 40.7281C41.6574 44.25 39.9492 50.7895 37.92 57.1591C35.891 50.7895 34.1825 44.25 27.8991 40.7281L30.9766 38.9505C31.2743 38.838 31.5288 38.6341 31.7035 38.3682C31.8783 38.1022 31.9643 37.7877 31.9494 37.4698C31.6675 31.5045 33.2781 28.8666 35.4507 27.2103C36.23 26.617 37.0807 26.3191 37.92 26.3191C38.7593 26.3191 39.61 26.617 40.3895 27.2103C42.5621 28.8666 44.1727 31.5045 43.8908 37.4698C43.8759 37.7877 43.9619 38.1022 44.1367 38.3682C44.3114 38.6341 44.5659 38.838 44.8636 38.9505ZM37.92 0C41.4773 0.0955067 45.0435 0.786093 48.1384 2.12952C50.2816 3.06103 52.2814 4.29147 54.0923 5.76283C54.91 6.42707 55.5834 7.06876 56.3251 7.80748C58.3257 7.87664 61.2494 5.65415 62.6068 3.57453C60.2708 11.2328 49.6111 20.2765 42.2312 23.7371C42.2282 23.7358 42.2261 23.734 42.2239 23.7325C40.8994 22.7212 39.4098 22.2156 37.92 22.2156C36.4301 22.2156 34.9408 22.7212 33.6163 23.7325C33.6141 23.7338 33.612 23.7361 33.609 23.7371C26.2289 20.2765 15.5694 11.2328 13.2334 3.57453C14.5905 5.65415 17.5142 7.87664 19.5148 7.80748C20.2568 7.06901 20.9302 6.42707 21.7477 5.76283C23.5585 4.29147 25.5583 3.06103 27.7015 2.12952C30.7967 0.786093 34.3629 0.0955067 37.92 0ZM31.3794 27.0727C29.0548 25.9135 26.0964 24.207 23.1349 21.869C22.5105 23.1658 22.4421 24.2975 22.7635 25.2112C22.9918 25.8552 23.4215 26.4153 23.9861 26.8609C24.5982 27.3425 25.3622 27.6931 26.2069 27.8826C27.8094 28.2436 29.6803 28.0329 31.3794 27.0727Z" fill="black"/>
<path fill-rule="evenodd" clip-rule="evenodd" d="M55.949 19.0058C57.5794 17.3604 59.0161 15.5392 60.1713 13.9141L60.758 15.0183C62.6469 18.7973 63.6283 22.5611 63.6283 26.7968L63.6242 33.5183L63.6597 37.0026C63.7965 45.5567 65.6473 54.2113 69.84 62.1315L61.0678 55.0579L54.8609 65.1302L48.3401 58.9917L37.92 75.9014L27.4999 58.9919L20.9793 65.1305L14.7724 55.0582L6 62.1318C10.1927 54.2115 12.0435 45.5569 12.1806 37.0029L12.216 33.5185L12.212 26.7971C12.212 22.5611 13.1931 18.7973 15.0825 15.0186L15.669 13.9143C16.8242 15.5394 18.2606 17.3604 19.8913 19.0061L19.3821 20.0637C18.3928 22.118 18.0653 24.415 18.8359 26.5995C19.3327 28.0065 20.2394 29.2131 21.4082 30.1342C22.5432 31.0288 23.8863 31.6317 25.2926 31.9484C26.2087 32.1546 27.1419 32.2394 28.0691 32.2106C27.8528 33.4369 27.7583 34.7089 27.7522 36.005L19.4773 40.7844L25.8629 44.3637C26.3732 44.6499 26.8591 44.9777 27.3155 45.3439C32.58 50.0706 35.7451 64.0538 37.9203 70.8839C40.0956 64.0538 43.2605 50.0706 48.5253 45.3439C48.9816 44.9776 49.4675 44.6498 49.9779 44.3637L56.3634 40.7844L48.0883 36.005C48.0822 34.7089 47.9877 33.4369 47.7714 32.2106C48.6986 32.2394 49.6319 32.1546 50.5479 31.9484C51.9542 31.6317 53.2976 31.0288 54.4323 30.1342C55.6009 29.2131 56.5078 28.0065 57.0044 26.5995C57.7752 24.415 57.4474 22.1183 56.4584 20.0637L55.9492 19.0061L55.949 19.0058Z" fill="black"/>
</g>
<defs>
<clipPath id="clip0_956_770">
<rect width="63.84" height="76" fill="white" transform="translate(6)"/>
</clipPath>
</defs>
</svg>
