<svg width="16" height="16" viewBox="0 0 16 16" fill="none" xmlns="http://www.w3.org/2000/svg">
<path d="M13.4269 3.02093C12.4116 2.55483 11.3401 2.22245 10.2393 2.03213C10.2293 2.03019 10.2189 2.03148 10.2097 2.03579C10.2005 2.0401 10.193 2.04722 10.1881 2.05613C10.0505 2.30133 9.89806 2.62053 9.79126 2.87173C8.60473 2.69153 7.39779 2.69153 6.21126 2.87173C6.09195 2.59279 5.95734 2.32064 5.80806 2.05653C5.8029 2.04787 5.79527 2.04095 5.78614 2.03667C5.77701 2.03239 5.76681 2.03095 5.75686 2.03253C4.6561 2.22224 3.58471 2.55436 2.56966 3.02053C2.56083 3.02428 2.55341 3.03072 2.54846 3.03893C0.518457 6.07133 -0.0379432 9.03013 0.235257 11.9513C0.236457 11.9657 0.244457 11.9793 0.255257 11.9881C1.59486 12.9717 2.89246 13.5689 4.16566 13.9645C4.17554 13.9674 4.18607 13.9673 4.19586 13.9641C4.20565 13.9608 4.21422 13.9547 4.22046 13.9465C4.52242 13.5355 4.78999 13.1003 5.02046 12.6453C5.02359 12.6391 5.02537 12.6323 5.02568 12.6253C5.02599 12.6183 5.02482 12.6113 5.02225 12.6048C5.01969 12.5983 5.01578 12.5925 5.01078 12.5876C5.00578 12.5827 4.99981 12.5789 4.99326 12.5765C4.57148 12.4153 4.16314 12.221 3.77206 11.9953C3.76493 11.9911 3.75894 11.9852 3.75464 11.9782C3.75033 11.9711 3.74782 11.9631 3.74735 11.9548C3.74688 11.9465 3.74844 11.9383 3.75192 11.9308C3.75539 11.9233 3.76066 11.9167 3.76726 11.9117C3.84926 11.8505 3.93126 11.7865 4.01006 11.7217C4.017 11.716 4.02539 11.7124 4.03429 11.7112C4.04319 11.71 4.05225 11.7113 4.06046 11.7149C6.62326 12.8849 9.39766 12.8849 11.9305 11.7149C11.9387 11.711 11.9479 11.7094 11.9569 11.7105C11.966 11.7115 11.9746 11.7152 11.9817 11.7209C12.0601 11.7857 12.1417 11.8505 12.2249 11.9117C12.2315 11.9167 12.2368 11.9232 12.2403 11.9307C12.2438 11.9382 12.2454 11.9464 12.245 11.9547C12.2445 11.963 12.2421 11.971 12.2378 11.9781C12.2335 11.9852 12.2276 11.9911 12.2205 11.9953C11.8305 12.2233 11.4245 12.4157 10.9985 12.5769C10.9919 12.5794 10.986 12.5833 10.981 12.5882C10.9761 12.5931 10.9722 12.5991 10.9697 12.6056C10.9672 12.6121 10.966 12.6191 10.9664 12.6261C10.9667 12.633 10.9685 12.6399 10.9717 12.6461C11.2059 13.0987 11.473 13.5335 11.7709 13.9469C11.7833 13.9641 11.8057 13.9717 11.8261 13.9653C13.1057 13.5693 14.4029 12.9725 15.7421 11.9889C15.7479 11.9848 15.7528 11.9794 15.7563 11.9732C15.7599 11.967 15.7622 11.9601 15.7629 11.9529C16.0893 8.57493 15.2157 5.64093 13.4473 3.03973C13.4429 3.03145 13.4359 3.02494 13.4273 3.02133L13.4269 3.02093ZM5.40286 10.1729C4.63166 10.1729 3.99606 9.46453 3.99606 8.59453C3.99606 7.72453 4.61926 7.01613 5.40326 7.01613C6.19326 7.01613 6.82286 7.73093 6.81046 8.59453C6.81046 9.46453 6.18726 10.1729 5.40326 10.1729H5.40286ZM10.6069 10.1729C9.83486 10.1729 9.19886 9.46453 9.19886 8.59453C9.19886 7.72453 9.82286 7.01613 10.6069 7.01613C11.3965 7.01613 12.0261 7.73093 12.0137 8.59453C12.0137 9.46453 11.3969 10.1729 10.6069 10.1729Z" fill="white"/>
</svg>
