<svg width="76" height="76" viewBox="0 0 76 76" fill="none" xmlns="http://www.w3.org/2000/svg">
<g clip-path="url(#clip0_956_788)">
<path d="M38.0748 75.4687C59.1006 75.4687 76.1454 58.5745 76.1454 37.7344C76.1454 16.8942 59.1006 0 38.0748 0C17.0489 0 0.00415039 16.8942 0.00415039 37.7344C0.00415039 58.5745 17.0489 75.4687 38.0748 75.4687Z" fill="#F06040"/>
<path d="M60.2821 7.08778C54.1667 2.73359 46.8861 0.274573 39.3606 0.0216777C31.8353 -0.231218 24.4034 1.73337 18.0046 5.66699C11.6057 9.60062 6.52747 15.3266 3.4119 22.121C0.296341 28.9152 -0.716559 36.4726 0.501285 43.8374C1.71913 51.2023 5.11302 58.0438 10.2538 63.4969C15.3945 68.95 22.0513 72.7696 29.3823 74.4728C36.7132 76.1761 44.389 75.6864 51.4392 73.0657C58.4894 70.445 64.5972 65.811 68.9902 59.7499C71.9071 55.7252 73.9956 51.1706 75.1367 46.3461C76.2775 41.5214 76.4486 36.5213 75.64 31.6312C74.8313 26.7411 73.059 22.0567 70.4238 17.8455C67.7887 13.6344 64.3425 9.97886 60.2821 7.08778Z" fill="#F1603F"/>
<path d="M6.62671 59.0197C6.62671 59.0197 31.7841 50.851 76.1229 36.5195C76.1229 36.5195 78.5517 59.9892 54.0069 72.2313C54.0069 72.2313 41.9034 77.9817 28.6247 74.2928C28.6247 74.2928 15.4023 71.8189 6.62671 59.0197Z" fill="#2B286C"/>
</g>
<defs>
<clipPath id="clip0_956_788">
<rect width="76" height="76" fill="white"/>
</clipPath>
</defs>
</svg>
