<svg width="76" height="76" viewBox="0 0 76 76" fill="none" xmlns="http://www.w3.org/2000/svg">
<path d="M51.9842 28.1266L55.9117 32.7368C56.3614 33.2547 56.7601 33.6806 56.9214 33.9228C58.096 35.0891 58.7545 36.6652 58.7537 38.3077C58.6433 40.2452 57.3793 41.5649 56.2087 42.9764L53.4602 46.2002L52.0267 47.8706C51.9751 47.9283 51.9421 47.9993 51.9312 48.0754C51.9203 48.1514 51.9324 48.2287 51.9658 48.2981C51.9993 48.3673 52.0524 48.4254 52.1191 48.4653C52.1857 48.5051 52.2627 48.5248 52.3404 48.5222H66.6684C68.8569 48.5222 71.6139 50.3595 71.4528 53.1491C71.4484 54.4171 70.9347 55.6318 70.0241 56.5282C69.1135 57.4249 67.8797 57.9304 66.5919 57.9348H44.1544C42.6784 57.9348 38.7081 58.0936 37.597 54.711C37.3606 54.004 37.3283 53.2466 37.5037 52.5228C37.8267 51.4523 38.3376 50.446 39.0136 49.5494C40.1419 47.879 41.3634 46.2087 42.568 44.5884C44.1204 42.467 45.7153 40.4124 47.2846 38.2491C47.3403 38.1787 47.3705 38.092 47.3705 38.0027C47.3705 37.9135 47.3403 37.8268 47.2846 37.7564L41.5839 31.0748C41.5469 31.0264 41.4987 30.9871 41.4436 30.96C41.3884 30.933 41.3276 30.9189 41.266 30.9189C41.2041 30.9189 41.1433 30.933 41.0881 30.96C41.033 30.9871 40.9848 31.0264 40.9478 31.0748C39.4208 33.1043 32.7363 42.091 31.3109 43.9118C29.8858 45.7325 26.3739 45.8327 24.4313 43.9118L15.5156 35.1005C15.4587 35.0442 15.386 35.0058 15.3069 34.9903C15.2278 34.9747 15.1458 34.9827 15.0712 35.0131C14.9967 35.0435 14.933 35.0951 14.8883 35.1612C14.8436 35.2273 14.8198 35.305 14.82 35.3844V52.3307C14.841 53.5331 14.4793 54.712 13.7856 55.702C13.0919 56.692 12.101 57.4436 10.9517 57.8513C10.2174 58.1028 9.43256 58.1781 8.66272 58.0704C7.89288 57.9628 7.16033 57.6755 6.52612 57.2325C5.89194 56.7895 5.37451 56.2037 5.01696 55.5239C4.65942 54.8442 4.47212 54.09 4.4707 53.3245V22.8565C4.52181 21.7585 4.92309 20.7043 5.61752 19.8436C6.31195 18.983 7.26419 18.3597 8.33897 18.0624C9.26087 17.8206 10.2313 17.823 11.152 18.0694C12.0726 18.3158 12.9108 18.7975 13.5815 19.4655L27.2902 32.9791C27.331 33.0201 27.3808 33.0518 27.4355 33.0718C27.4905 33.0918 27.5491 33.0997 27.6073 33.0949C27.6657 33.0902 27.7221 33.0728 27.7728 33.0441C27.8236 33.0154 27.8673 32.9761 27.9009 32.9289L37.6395 19.6576C38.0893 19.1189 38.6536 18.6835 39.2925 18.382C39.9315 18.0804 40.6294 17.9201 41.338 17.9121H66.6684C67.3615 17.9132 68.0466 18.06 68.6775 18.3428C69.3084 18.6255 69.8708 19.0376 70.3269 19.5516C70.783 20.0655 71.1223 20.6694 71.3225 21.3229C71.5225 21.9764 71.5785 22.6644 71.4866 23.3409C71.3082 24.5144 70.7035 25.5844 69.7846 26.3523C68.8658 27.1202 67.6952 27.534 66.4902 27.5169H52.3066C52.2353 27.5186 52.1658 27.5391 52.1052 27.5762C52.0448 27.6133 51.9954 27.6658 51.9626 27.728C51.9296 27.7903 51.9143 27.8601 51.9181 27.9302C51.9219 28.0003 51.9447 28.0681 51.9842 28.1266Z" fill="#E42575"/>
</svg>
