<svg width="76" height="76" viewBox="0 0 76 76" fill="none" xmlns="http://www.w3.org/2000/svg">
<g clip-path="url(#clip0_956_521)">
<mask id="mask0_956_521" style="mask-type:luminance" maskUnits="userSpaceOnUse" x="0" y="0" width="76" height="77">
<path d="M76 0.125H0V76.125H76V0.125Z" fill="white"/>
</mask>
<g mask="url(#mask0_956_521)">
<path d="M71.96 35.8545C71.96 54.8194 56.586 70.1934 37.6211 70.1934C18.6563 70.1934 3.28223 54.8194 3.28223 35.8545C3.28223 16.8897 18.6563 1.51562 37.6211 1.51562C56.586 1.51562 71.96 16.8897 71.96 35.8545Z" fill="white"/>
<path d="M38.3294 0.126354C17.0811 -0.0509787 -0.177199 17.2073 0.000133776 38.4557C0.177467 59.0896 17.0368 75.949 37.6644 76.1199C58.9128 76.3037 76.1774 59.0391 75.9939 37.7906C75.8227 17.163 58.9636 0.303687 38.3294 0.126354ZM26.9676 19.0377C29.3996 22.1284 30.8562 26.0361 30.8562 30.2793C30.8562 33.9528 29.7667 37.3728 27.8922 40.229H14.7188L26.9676 19.0377ZM67.1334 44.922C67.1334 45.0993 67.0385 45.2513 66.8739 45.321C65.9808 45.701 63.0358 47.069 61.8071 48.7728C58.6467 53.1745 56.2339 60.0905 50.8379 60.0905H28.3227C20.3491 60.0905 13.6801 53.7633 13.6865 45.3336C13.6865 45.1248 13.8638 44.9536 14.0728 44.9536H24.7445C25.1118 44.9536 25.4031 45.2513 25.4031 45.6123V47.6706C25.4031 48.7665 26.2899 49.653 27.3854 49.653H35.4796V44.941H29.9505C33.1299 40.913 35.0236 35.8273 35.0236 30.2919C35.0236 24.117 32.6547 18.4867 28.7787 14.275C31.1221 14.5473 33.3642 15.016 35.4796 15.6367V14.3257C35.4796 12.964 36.5814 11.862 37.9431 11.862C39.3048 11.862 40.4067 12.964 40.4067 14.3257V17.486C47.9625 21.0137 52.9088 26.8656 52.9088 33.4839C52.9088 37.3665 51.2116 40.9826 48.2791 44.0226C47.7156 44.6054 46.9364 44.9346 46.1196 44.9346H40.4067V49.6403H47.5762C49.1214 49.6403 51.8956 46.7079 53.2128 44.941C53.2128 44.941 53.2699 44.8523 53.4219 44.8079C53.5739 44.7637 66.5888 41.7745 66.5888 41.7745C66.861 41.6985 67.1334 41.9073 67.1334 42.186V44.922Z" fill="#0086FF"/>
</g>
</g>
<defs>
<clipPath id="clip0_956_521">
<rect width="76" height="76" rx="8" fill="white"/>
</clipPath>
</defs>
</svg>
