<svg width="76" height="76" viewBox="0 0 76 76" fill="none" xmlns="http://www.w3.org/2000/svg">
<g clip-path="url(#clip0_956_799)">
<path d="M30.8823 17.2942C30.0588 17.1765 30.0196 17.1373 30.4117 17.0981C31.1568 16.9805 32.8823 17.1373 34.098 17.4118C36.9215 18.0785 39.4705 19.804 42.1764 22.8236L42.8823 23.6471L43.9019 23.4903C48.2548 22.7844 52.7254 23.3334 56.4509 25.0589C57.4705 25.5295 59.0784 26.4707 59.2745 26.706C59.3529 26.7844 59.4705 27.2942 59.549 27.804C59.8235 29.6471 59.7058 31.0197 59.1176 32.0785C58.8039 32.6667 58.8039 32.8236 58.9999 33.3334C59.1568 33.7256 59.6274 34.0001 60.0588 34.0001C60.9999 34.0001 61.9803 32.5099 62.4509 30.4314L62.647 29.6079L62.9999 30.0001C64.9999 32.2354 66.5686 35.3334 66.8039 37.5295L66.8823 38.1177L66.5294 37.6079C65.9411 36.706 65.3921 36.1177 64.647 35.6079C63.3137 34.706 61.9019 34.4314 58.1764 34.2354C54.8039 34.0393 52.8823 33.7648 50.9999 33.1373C47.7843 32.0785 46.1372 30.706 42.3333 25.6471C40.647 23.4118 39.5882 22.1962 38.5294 21.1765C36.2156 18.9413 33.9019 17.7648 30.8823 17.2942Z" fill="#FF007A"/>
<path d="M60.0982 22.2736C60.1766 20.7834 60.3727 19.803 60.804 18.901C60.9609 18.5481 61.1178 18.2344 61.157 18.2344C61.1962 18.2344 61.1178 18.5089 61.0001 18.8226C60.6864 19.6854 60.6472 20.901 60.8433 22.2736C61.1178 24.0383 61.2354 24.2736 63.1178 26.1952C63.9805 27.0971 65.0001 28.2344 65.3923 28.705L66.0589 29.5677L65.3923 28.9403C64.5687 28.1559 62.6864 26.6657 62.255 26.4697C61.9805 26.3128 61.9413 26.3128 61.7452 26.5089C61.5884 26.6657 61.5491 26.901 61.5491 28.0383C61.5099 29.803 61.2746 30.901 60.6864 32.0383C60.3727 32.6265 60.3335 32.5089 60.608 31.8422C60.804 31.3324 60.8433 31.0971 60.8433 29.4108C60.8433 25.9991 60.4511 25.1756 58.0589 23.803C57.4707 23.4501 56.4511 22.9403 55.8629 22.6657C55.2354 22.3912 54.7648 22.1559 54.804 22.1559C54.8825 22.0775 57.1962 22.7442 58.0982 23.1363C59.4707 23.6854 59.706 23.7246 59.8629 23.6854C59.9805 23.5677 60.0589 23.254 60.0982 22.2736Z" fill="#FF007A"/>
<path d="M32.4903 28.1182C30.8432 25.8437 29.7844 22.3143 30.0197 19.6868L30.0981 18.8633L30.4903 18.9417C31.1962 19.0594 32.4119 19.5299 33.0001 19.8829C34.5687 20.8241 35.2746 22.1182 35.9413 25.3339C36.1373 26.275 36.4119 27.3731 36.5295 27.726C36.7256 28.3143 37.4707 29.6868 38.0981 30.5496C38.5295 31.177 38.255 31.4907 37.2746 31.4123C35.7844 31.2554 33.7844 29.8829 32.4903 28.1182Z" fill="#FF007A"/>
<path d="M58.0979 45.1783C50.3332 42.0411 47.5881 39.3352 47.5881 34.7469C47.5881 34.0803 47.6273 33.5312 47.6273 33.5312C47.6666 33.5312 47.9411 33.7665 48.294 34.0411C49.8626 35.296 51.6273 35.845 56.5293 36.5509C59.3921 36.9822 61.0391 37.296 62.5293 37.8058C67.2744 39.3744 70.2156 42.5901 70.9215 46.943C71.1175 48.1979 70.9999 50.5901 70.6862 51.845C70.4117 52.8254 69.6274 54.6293 69.4313 54.6685C69.3921 54.6685 69.3136 54.4724 69.3136 54.1587C69.2352 52.5116 68.4117 50.943 67.0391 49.7273C65.3921 48.3156 63.2744 47.2567 58.0979 45.1783Z" fill="#FF007A"/>
<path d="M52.6078 46.4697C52.5293 45.8814 52.3333 45.1363 52.2156 44.8226L52.0195 44.2344L52.3725 44.6657C52.8823 45.254 53.2744 45.9599 53.6274 46.9403C53.9019 47.6854 53.9019 47.9206 53.9019 49.1363C53.9019 50.3128 53.8627 50.5873 53.6274 51.254C53.2352 52.3128 52.7646 53.0579 51.9803 53.8814C50.5686 55.3324 48.7254 56.1167 46.098 56.4697C45.6274 56.5089 44.294 56.6265 43.1176 56.705C40.1764 56.8618 38.2156 57.1755 36.4509 57.803C36.2156 57.8814 35.9803 57.9599 35.9411 57.9206C35.8627 57.8422 37.0784 57.1363 38.0588 56.6657C39.4313 55.9991 40.8431 55.6461 43.9411 55.0971C45.4705 54.8618 47.0391 54.5481 47.4313 54.3912C51.3137 53.1755 53.2352 50.1559 52.6078 46.4697Z" fill="#FF007A"/>
<path d="M56.1765 52.7842C55.1569 50.5489 54.9216 48.4312 55.4706 46.4312C55.549 46.2351 55.6275 46.0391 55.7059 46.0391C55.7843 46.0391 56.0196 46.1567 56.2549 46.3136C56.7255 46.6273 57.7059 47.1763 60.2157 48.5489C63.3922 50.2744 65.1961 51.6077 66.451 53.1371C67.549 54.4704 68.2157 55.9998 68.5294 57.8822C68.7255 58.941 68.6079 61.49 68.3334 62.5489C67.4706 65.8822 65.5098 68.5489 62.6471 70.0783C62.2157 70.3136 61.8628 70.4704 61.8235 70.4704C61.7843 70.4704 61.9412 70.0783 62.1765 69.6077C63.1177 67.6077 63.2353 65.6861 62.5294 63.5293C62.0981 62.1959 61.1961 60.5881 59.3922 57.8822C57.2353 54.7449 56.7255 53.9214 56.1765 52.7842Z" fill="#FF007A"/>
<path d="M26.9607 64.7857C29.8627 62.3543 33.4313 60.6288 36.7254 60.0798C38.1372 59.8445 40.4901 59.9229 41.7843 60.2759C43.8627 60.8249 45.7451 62.0014 46.7254 63.4524C47.6666 64.8641 48.098 66.0798 48.5294 68.7857C48.6862 69.8445 48.8823 70.9426 48.9215 71.1778C49.2352 72.5896 49.8627 73.6877 50.647 74.2759C51.8627 75.1778 53.9803 75.2171 56.0588 74.4328C56.4117 74.3151 56.7254 74.1975 56.7254 74.2367C56.8039 74.3151 55.745 75.021 55.0392 75.3739C54.0588 75.8837 53.2745 76.0406 52.2156 76.0406C50.3333 76.0406 48.7254 75.0602 47.4313 73.0994C47.1568 72.7073 46.6078 71.57 46.1372 70.5112C44.7647 67.3347 44.0588 66.3935 42.4509 65.3347C41.0392 64.4328 39.2352 64.2367 37.8627 64.9033C36.0588 65.7661 35.5882 68.0798 36.8431 69.4916C37.3529 70.0798 38.2941 70.5504 39.0784 70.668C40.5294 70.8641 41.7843 69.7269 41.7843 68.2759C41.7843 67.3347 41.4313 66.7857 40.4901 66.3543C39.2352 65.8053 37.8627 66.4328 37.9019 67.6484C37.9019 68.1582 38.1372 68.472 38.647 68.7073C38.9607 68.8641 38.9607 68.8641 38.7254 68.8249C37.5882 68.5896 37.3137 67.1778 38.2156 66.2759C39.3137 65.1778 41.6274 65.6484 42.4117 67.1779C42.7254 67.8053 42.7647 69.0602 42.4901 69.8445C41.8235 71.57 39.9411 72.472 38.0196 71.9622C36.7254 71.6092 36.1764 71.2563 34.6078 69.6484C31.8627 66.8249 30.8039 66.2759 26.8823 65.6877L26.1372 65.57L26.9607 64.7857Z" fill="#FF007A"/>
<path fill-rule="evenodd" clip-rule="evenodd" d="M6.33337 1.68627C15.4706 12.7843 29.5491 30.0392 30.2549 30.9804C30.8432 31.7647 30.6079 32.5098 29.6275 33.0588C29.0785 33.3726 27.9412 33.6863 27.3922 33.6863C26.7647 33.6863 26.0196 33.3726 25.5098 32.8627C25.1569 32.5098 23.6275 30.2745 20.1765 24.902C17.5491 20.7843 15.3138 17.3725 15.2745 17.3333C15.1177 17.2549 15.1177 17.2549 19.902 25.8039C22.9216 31.1765 23.902 33.098 23.902 33.3333C23.902 33.8431 23.7451 34.1176 23.1177 34.8235C22.0589 36 21.5883 37.3333 21.2353 40.1176C20.8432 43.2157 19.7843 45.4118 16.7647 49.1373C15 51.3333 14.7255 51.7255 14.2942 52.6274C13.7451 53.7255 13.5883 54.3529 13.5098 55.7647C13.4314 57.2549 13.5883 58.1961 14.0196 59.6078C14.4118 60.8627 14.8432 61.6863 15.902 63.2941C16.804 64.7059 17.353 65.7647 17.353 66.1569C17.353 66.4706 17.4314 66.4706 18.8432 66.1569C22.2157 65.3726 25 64.0392 26.5294 62.3922C27.4706 61.3726 27.7059 60.8235 27.7059 59.4118C27.7059 58.5098 27.6667 58.3137 27.4314 57.7647C27.0393 56.902 26.2942 56.1961 24.6863 55.098C22.5687 53.6471 21.6667 52.4706 21.4314 50.902C21.2353 49.5686 21.4706 48.6667 22.6471 46.1961C23.8628 43.6471 24.1765 42.5882 24.3726 40C24.4902 38.3529 24.6863 37.6863 25.1569 37.1765C25.6667 36.6275 26.0981 36.4314 27.3138 36.2745C29.3138 36 30.6079 35.4902 31.6275 34.5098C32.5294 33.6863 32.9216 32.8627 32.9608 31.6471L33 30.7451L32.4902 30.1961C30.6471 28.0784 5.11768 0 5.00004 0C4.96082 0 5.58827 0.745098 6.33337 1.68627ZM18.3726 57.451C18.804 56.7059 18.5687 55.7647 17.8628 55.2941C17.1961 54.8627 16.1765 55.0588 16.1765 55.6471C16.1765 55.8039 16.2549 55.9608 16.4902 56.0392C16.8432 56.2353 16.8824 56.4314 16.6079 56.8627C16.3334 57.2941 16.3334 57.6863 16.6863 57.9608C17.2353 58.3922 17.9804 58.1569 18.3726 57.451Z" fill="#FF007A"/>
<path fill-rule="evenodd" clip-rule="evenodd" d="M34.255 36.8224C33.3138 37.0969 32.4118 38.1165 32.1373 39.1361C31.9805 39.7636 32.0589 40.9009 32.3334 41.2538C32.7648 41.8028 33.1569 41.9597 34.255 41.9597C36.4118 41.9597 38.255 41.0185 38.451 39.8812C38.6471 38.9401 37.8236 37.646 36.6863 37.0577C36.0981 36.744 34.8824 36.6263 34.255 36.8224ZM36.7648 38.7832C37.0785 38.3126 36.9609 37.8028 36.3726 37.4499C35.3138 36.7832 33.7059 37.3322 33.7059 38.3518C33.7059 38.8616 34.5295 39.4107 35.3138 39.4107C35.8236 39.4107 36.5295 39.0969 36.7648 38.7832Z" fill="#FF007A"/>
</g>
<defs>
<clipPath id="clip0_956_799">
<rect width="66" height="76" fill="white" transform="translate(5)"/>
</clipPath>
</defs>
</svg>
